<svg version="1.1" id="Layer_1" xmlns="http://www.w3.org/2000/svg" xmlns:xlink="http://www.w3.org/1999/xlink" x="0px" y="0px"
	 width="100%" viewBox="0 0 608 608" enable-background="new 0 0 608 608" xml:space="preserve">
<path fill="#000000" opacity="1.000000" stroke="none" 
	d="
M350.123047,190.053009 
	C340.925751,215.582367 331.872650,240.748505 322.336761,267.256592 
	C363.309509,267.256592 403.220428,267.256592 444.621460,267.256592 
	C369.414032,361.675385 295.347168,454.662292 221.086121,547.893005 
	C219.578461,545.724609 220.509247,544.500000 220.929001,543.339172 
	C242.211273,484.483551 263.528687,425.640594 284.841583,366.796051 
	C286.542297,362.100311 288.141113,357.364716 289.966522,352.718079 
	C291.445892,348.952271 290.099213,347.350128 286.307617,347.274231 
	C284.475372,347.237579 282.642303,347.228607 280.809601,347.228424 
	C246.485458,347.224670 212.161316,347.230286 177.837189,347.206879 
	C175.871613,347.205536 173.837677,347.595947 170.598282,345.907623 
	C244.755920,252.562988 318.942657,159.659760 393.016144,66.666664 
	C393.504150,66.937111 393.992157,67.207565 394.480164,67.478012 
	C379.742523,108.215271 365.004852,148.952530 350.123047,190.053009 
z"/>
</svg>