<svg version="1.1" id="Layer_1" xmlns="http://www.w3.org/2000/svg" xmlns:xlink="http://www.w3.org/1999/xlink" x="0px" y="0px"
	 width="100%" viewBox="0 0 224 224" enable-background="new 0 0 224 224" xml:space="preserve">
<path fill="#000000" opacity="1.000000" stroke="none" 
	d="
M107.737213,209.941727 
	C97.820114,206.800507 91.618263,200.629242 89.556496,190.752594 
	C88.845078,187.344666 87.233093,186.269501 83.730072,186.312103 
	C68.572044,186.496460 53.410141,186.386703 38.249760,186.342743 
	C29.775019,186.318161 26.415485,183.343460 25.767397,174.837967 
	C25.049372,165.414581 26.930361,156.853195 35.281105,151.016235 
	C47.521927,142.460220 50.551334,129.323761 52.588322,115.842949 
	C54.501587,103.180923 56.278149,90.513817 60.101250,78.245712 
	C65.134224,62.095203 75.604973,50.896027 91.286789,44.742558 
	C94.943031,43.307873 95.830627,41.734123 95.231667,37.746960 
	C94.108269,30.268644 96.962807,23.986511 103.477119,19.782516 
	C109.968231,15.593497 116.665863,15.429984 123.206978,19.624184 
	C129.840424,23.877583 132.805649,30.043476 131.774323,37.914059 
	C131.441605,40.453197 130.633194,42.709656 134.070908,43.974514 
	C156.167877,52.104786 166.494263,69.294197 170.312576,91.435349 
	C172.287750,102.888634 174.094696,114.377907 176.402893,125.764725 
	C178.507324,136.146393 183.096191,145.033691 192.142578,151.495544 
	C201.236298,157.991257 202.650330,167.687439 200.653458,177.920746 
	C199.438736,184.145782 196.429962,186.245255 190.052841,186.285400 
	C174.725983,186.381866 159.396515,186.482620 144.072083,186.280457 
	C139.836029,186.224564 138.108154,187.526764 137.124252,191.790451 
	C134.109589,204.854324 123.406120,211.372086 107.737213,209.941727 
M126.121048,55.306355 
	C121.088737,53.757507 115.907448,54.036823 110.756584,54.129719 
	C92.308502,54.462429 78.093803,64.806023 72.523376,82.254654 
	C69.333344,92.247025 67.632759,102.580917 66.273132,112.983177 
	C63.771133,132.125412 59.586014,150.514191 42.216991,162.473129 
	C41.422977,163.019821 40.670506,163.809326 40.234055,164.658188 
	C38.995270,167.067444 38.185284,169.922546 39.088821,172.317932 
	C40.003010,174.741531 42.935097,173.598129 44.963402,173.600662 
	C90.597176,173.657715 136.231064,173.660004 181.864807,173.593109 
	C184.035187,173.589920 187.235107,174.842285 188.128906,172.120712 
	C188.972412,169.552399 187.997223,166.531937 186.386795,164.104752 
	C185.758316,163.157578 184.847580,162.323761 183.904572,161.670502 
	C173.197800,154.253326 167.566513,143.648956 164.161118,131.388245 
	C160.760925,119.146187 160.201263,106.465523 157.727921,94.081322 
	C154.073776,75.784729 146.315842,61.064732 126.121048,55.306355 
M120.861992,194.535263 
	C121.531143,193.803375 122.330193,193.151505 122.841118,192.322144 
	C123.769386,190.815353 125.280930,189.233475 124.179359,187.365051 
	C123.167641,185.649017 121.169960,186.418091 119.593910,186.394760 
	C115.123001,186.328552 110.648392,186.478760 106.178543,186.385468 
	C101.860291,186.295349 101.874641,188.363586 103.490860,191.368332 
	C106.661926,197.263687 113.346886,198.707733 120.861992,194.535263 
M110.814514,39.636467 
	C114.157921,41.614380 116.586395,40.304073 118.175751,37.265739 
	C119.385864,34.952396 118.763496,32.672131 116.665810,31.083641 
	C114.421638,29.384226 111.915459,29.254078 109.929077,31.360249 
	C107.514671,33.920246 107.587112,36.684349 110.814514,39.636467 
z"/>
</svg>