<svg version="1.1" id="Layer_1" xmlns="http://www.w3.org/2000/svg" xmlns:xlink="http://www.w3.org/1999/xlink" x="0px" y="0px"
	 width="100%" viewBox="0 0 960 960" enable-background="new 0 0 960 960" xml:space="preserve">
<path fill="#F7DF1E" opacity="1.000000" stroke="none" 
	d="
M897.000000,961.000000 
	C598.000000,961.000000 299.500000,961.000000 1.000000,961.000000 
	C1.000000,641.000000 1.000000,321.000000 1.000000,1.000000 
	C321.000000,1.000000 641.000000,1.000000 961.000000,1.000000 
	C961.000000,321.000000 961.000000,641.000000 961.000000,961.000000 
	C939.833313,961.000000 918.666687,961.000000 897.000000,961.000000 
M723.012817,885.406067 
	C739.779968,884.591675 756.690735,884.875549 773.280518,882.705444 
	C798.176025,879.448914 821.281555,870.572571 841.476807,855.176575 
	C869.271667,833.987000 883.585022,805.478699 885.920288,770.960938 
	C888.203613,737.209412 882.191833,705.547302 859.869202,678.669739 
	C844.924133,660.675232 826.172485,647.340942 805.431335,637.135742 
	C781.139587,625.183411 756.240234,614.468445 731.638123,603.143555 
	C719.978638,597.776489 708.640625,591.943420 699.257324,582.827271 
	C683.155212,567.183594 682.216675,527.793762 715.754272,517.751099 
	C735.480408,511.844208 761.623291,515.308228 778.515869,537.237488 
	C782.540527,542.462158 786.132141,548.020569 790.130371,553.721313 
	C813.362610,538.802002 836.561279,523.904236 859.945740,508.887146 
	C845.383240,483.393158 826.876770,462.437775 800.129456,450.162567 
	C768.142334,435.482697 734.489563,433.806732 700.356140,439.601746 
	C670.886047,444.605042 645.382629,457.630249 625.991272,480.877380 
	C599.988892,512.050049 595.307861,548.279541 602.579468,586.806885 
	C609.156799,621.655579 629.856812,646.786438 658.732544,666.019470 
	C681.451050,681.151489 706.876465,690.724365 731.482849,702.034363 
	C746.999390,709.166321 762.990906,716.013672 776.950623,725.629028 
	C806.459778,745.954712 801.789795,784.799316 768.962830,799.167358 
	C741.125549,811.351379 694.377991,808.996094 665.242676,776.600586 
	C658.156067,768.720947 651.973633,760.028320 645.156738,751.433838 
	C621.275146,765.307739 597.047729,779.382568 572.605347,793.582275 
	C585.136536,818.212646 602.302490,838.225342 624.634583,853.685730 
	C653.923706,873.962280 686.834656,883.302429 723.012817,885.406067 
M347.015381,788.478516 
	C340.230896,778.872864 333.446411,769.267273 326.415070,759.312195 
	C302.593292,773.730652 278.311218,788.427734 253.804596,803.260681 
	C267.801819,832.512268 287.863953,855.739258 317.028473,869.811707 
	C357.461700,889.321411 399.604980,890.419189 442.067322,877.921143 
	C476.213379,867.870850 500.043945,845.689819 513.169800,812.361206 
	C521.226318,791.904480 523.838440,770.511169 523.851501,748.733826 
	C523.911743,648.099426 523.879089,547.465027 523.879700,446.830658 
	C523.879761,445.248718 523.879761,443.666779 523.879761,442.213623 
	C493.376770,442.213623 463.627258,442.213623 433.653503,442.213623 
	C433.653503,444.707733 433.653473,446.862854 433.653473,449.017944 
	C433.653473,547.486328 433.693207,645.954834 433.580231,744.423096 
	C433.570923,752.553955 433.118958,760.778564 431.833771,768.793091 
	C429.519104,783.227722 423.674103,795.776123 408.812408,801.317444 
	C390.733002,808.058594 364.220154,807.874756 347.015381,788.478516 
z"/>
<path fill="#010100" opacity="1.000000" stroke="none" 
	d="
M722.548340,885.372437 
	C686.834656,883.302429 653.923706,873.962280 624.634583,853.685730 
	C602.302490,838.225342 585.136536,818.212646 572.605347,793.582275 
	C597.047729,779.382568 621.275146,765.307739 645.156738,751.433838 
	C651.973633,760.028320 658.156067,768.720947 665.242676,776.600586 
	C694.377991,808.996094 741.125549,811.351379 768.962830,799.167358 
	C801.789795,784.799316 806.459778,745.954712 776.950623,725.629028 
	C762.990906,716.013672 746.999390,709.166321 731.482849,702.034363 
	C706.876465,690.724365 681.451050,681.151489 658.732544,666.019470 
	C629.856812,646.786438 609.156799,621.655579 602.579468,586.806885 
	C595.307861,548.279541 599.988892,512.050049 625.991272,480.877380 
	C645.382629,457.630249 670.886047,444.605042 700.356140,439.601746 
	C734.489563,433.806732 768.142334,435.482697 800.129456,450.162567 
	C826.876770,462.437775 845.383240,483.393158 859.945740,508.887146 
	C836.561279,523.904236 813.362610,538.802002 790.130371,553.721313 
	C786.132141,548.020569 782.540527,542.462158 778.515869,537.237488 
	C761.623291,515.308228 735.480408,511.844208 715.754272,517.751099 
	C682.216675,527.793762 683.155212,567.183594 699.257324,582.827271 
	C708.640625,591.943420 719.978638,597.776489 731.638123,603.143555 
	C756.240234,614.468445 781.139587,625.183411 805.431335,637.135742 
	C826.172485,647.340942 844.924133,660.675232 859.869202,678.669739 
	C882.191833,705.547302 888.203613,737.209412 885.920288,770.960938 
	C883.585022,805.478699 869.271667,833.987000 841.476807,855.176575 
	C821.281555,870.572571 798.176025,879.448914 773.280518,882.705444 
	C756.690735,884.875549 739.779968,884.591675 722.548340,885.372437 
z"/>
<path fill="#010100" opacity="1.000000" stroke="none" 
	d="
M347.261902,788.731323 
	C364.220154,807.874756 390.733002,808.058594 408.812408,801.317444 
	C423.674103,795.776123 429.519104,783.227722 431.833771,768.793091 
	C433.118958,760.778564 433.570923,752.553955 433.580231,744.423096 
	C433.693207,645.954834 433.653473,547.486328 433.653473,449.017944 
	C433.653473,446.862854 433.653503,444.707733 433.653503,442.213623 
	C463.627258,442.213623 493.376770,442.213623 523.879761,442.213623 
	C523.879761,443.666779 523.879761,445.248718 523.879700,446.830658 
	C523.879089,547.465027 523.911743,648.099426 523.851501,748.733826 
	C523.838440,770.511169 521.226318,791.904480 513.169800,812.361206 
	C500.043945,845.689819 476.213379,867.870850 442.067322,877.921143 
	C399.604980,890.419189 357.461700,889.321411 317.028473,869.811707 
	C287.863953,855.739258 267.801819,832.512268 253.804596,803.260681 
	C278.311218,788.427734 302.593292,773.730652 326.415070,759.312195 
	C333.446411,769.267273 340.230896,778.872864 347.261902,788.731323 
z"/>
</svg>