<svg version="1.1" id="Layer_1" xmlns="http://www.w3.org/2000/svg" xmlns:xlink="http://www.w3.org/1999/xlink" x="0px" y="0px"
	 width="100%" viewBox="0 0 1283 1124" enable-background="new 0 0 1283 1124" xml:space="preserve">
<path fill="#FFFFFF" opacity="1.000000" stroke="none" 
	d="
M753.000000,1125.000000 
	C502.000000,1125.000000 251.500000,1125.000000 1.000000,1125.000000 
	C1.000000,750.333313 1.000000,375.666656 1.000000,1.000000 
	C428.666656,1.000000 856.333313,1.000000 1284.000000,1.000000 
	C1284.000000,375.666656 1284.000000,750.333313 1284.000000,1125.000000 
	C1107.166626,1125.000000 930.333313,1125.000000 753.000000,1125.000000 
M1113.268677,833.217346 
	C1149.911987,922.907471 1186.555298,1012.597656 1223.732422,1103.594604 
	C1223.732422,742.625366 1223.732422,383.210114 1223.732422,23.822018 
	C1076.750244,23.822018 930.037903,23.822018 782.878967,23.822018 
	C893.043945,293.671661 1003.029236,563.081238 1113.268677,833.217346 
M418.500214,23.527973 
	C290.434418,23.527973 162.368607,23.527973 34.299702,23.527973 
	C34.299702,383.476349 34.299702,742.767944 34.299702,1103.557251 
	C181.588333,742.791931 328.309601,383.416321 475.240295,23.527803 
	C456.128448,23.527803 437.814362,23.527803 418.500214,23.527973 
M570.499939,886.243164 
	C594.822083,886.243164 619.144287,886.243164 643.704285,886.243164 
	C650.446838,903.535889 657.175049,920.682922 663.820679,937.861877 
	C673.627686,963.212891 683.410400,988.573364 693.134705,1013.956238 
	C697.966797,1026.569336 702.585571,1039.264282 707.409790,1051.880615 
	C712.880859,1066.188599 718.671997,1080.377319 723.944458,1094.757080 
	C727.466980,1104.364014 727.170532,1104.472534 737.340271,1104.472534 
	C793.335266,1104.472534 849.330200,1104.472534 905.325195,1104.472534 
	C907.195801,1104.472534 909.066467,1104.472656 911.641724,1104.472656 
	C817.342773,876.175171 723.473755,648.918762 629.604797,421.662354 
	C629.158630,421.759216 628.712463,421.856049 628.266296,421.952911 
	C564.132874,576.533630 499.999390,731.114441 435.638580,886.243164 
	C480.867126,886.243164 525.183472,886.243164 570.499939,886.243164 
z"/>
<path fill="#FA0F00" opacity="1.000000" stroke="none" 
	d="
M1113.141602,832.854126 
	C1003.029236,563.081238 893.043945,293.671661 782.878967,23.822018 
	C930.037903,23.822018 1076.750244,23.822018 1223.732422,23.822018 
	C1223.732422,383.210114 1223.732422,742.625366 1223.732422,1103.594604 
	C1186.555298,1012.597656 1149.911987,922.907471 1113.141602,832.854126 
z"/>
<path fill="#FA0F00" opacity="1.000000" stroke="none" 
	d="
M419.000244,23.527889 
	C437.814362,23.527803 456.128448,23.527803 475.240295,23.527803 
	C328.309601,383.416321 181.588333,742.791931 34.299702,1103.557251 
	C34.299702,742.767944 34.299702,383.476349 34.299702,23.527973 
	C162.368607,23.527973 290.434418,23.527973 419.000244,23.527889 
z"/>
<path fill="#FA0F00" opacity="1.000000" stroke="none" 
	d="
M569.999878,886.243164 
	C525.183472,886.243164 480.867126,886.243164 435.638580,886.243164 
	C499.999390,731.114441 564.132874,576.533630 628.266296,421.952911 
	C628.712463,421.856049 629.158630,421.759216 629.604797,421.662354 
	C723.473755,648.918762 817.342773,876.175171 911.641724,1104.472656 
	C909.066467,1104.472656 907.195801,1104.472534 905.325195,1104.472534 
	C849.330200,1104.472534 793.335266,1104.472534 737.340271,1104.472534 
	C727.170532,1104.472534 727.466980,1104.364014 723.944458,1094.757080 
	C718.671997,1080.377319 712.880859,1066.188599 707.409790,1051.880615 
	C702.585571,1039.264282 697.966797,1026.569336 693.134705,1013.956238 
	C683.410400,988.573364 673.627686,963.212891 663.820679,937.861877 
	C657.175049,920.682922 650.446838,903.535889 643.704285,886.243164 
	C619.144287,886.243164 594.822083,886.243164 569.999878,886.243164 
z"/>
</svg>