<svg version="1.1" id="Layer_1" xmlns="http://www.w3.org/2000/svg" xmlns:xlink="http://www.w3.org/1999/xlink" x="0px" y="0px"
	 width="100%" viewBox="0 0 800 800" enable-background="new 0 0 800 800" xml:space="preserve">
<path fill="#FEFFFF" opacity="1.000000" stroke="none" 
	d="
M801.000000,315.000000 
	C801.000000,477.333344 801.000000,639.166687 801.000000,801.000000 
	C534.333313,801.000000 267.666656,801.000000 1.000000,801.000000 
	C1.000000,534.333313 1.000000,267.666656 1.000000,1.000000 
	C267.666656,1.000000 534.333313,1.000000 801.000000,1.000000 
	C801.000000,105.500000 801.000000,210.000000 801.000000,315.000000 
M290.455292,104.133659 
	C290.277679,104.408569 290.100098,104.683479 289.992218,104.996399 
	C289.992218,104.996399 289.949768,104.929344 289.244171,105.021599 
	C277.600281,111.237793 269.038177,120.109718 264.906433,133.334106 
	C264.906433,133.334106 264.895569,133.741547 264.425934,133.984680 
	C264.352356,134.308563 264.278778,134.632446 264.036865,135.611115 
	C263.989990,136.059265 263.943146,136.507401 263.248230,137.370697 
	C262.775360,140.231430 262.302460,143.092178 261.153778,146.441132 
	C260.821930,174.625473 260.490051,202.809830 260.007843,231.735931 
	C260.062347,232.486237 260.116852,233.236526 260.476746,234.786636 
	C262.463959,234.857788 264.451141,234.989044 266.438416,234.991302 
	C314.287506,235.045517 362.136597,235.085922 410.040863,235.571289 
	C410.040863,235.571289 410.174316,235.996704 410.020966,236.875061 
	C410.062988,239.243362 410.105011,241.611679 410.012604,244.907806 
	C410.057343,249.942780 410.102081,254.977753 409.999878,260.857300 
	C410.057800,262.569458 410.115723,264.281586 410.039917,266.425629 
	C410.039917,266.425629 409.983002,266.874207 409.052673,266.987640 
	C332.533234,266.992340 256.013763,266.990448 179.494354,267.040192 
	C177.626892,267.041412 175.759781,267.616364 173.901779,267.957977 
	C173.901779,267.957977 173.911453,267.930328 173.009796,267.975555 
	C164.616470,269.316376 155.958923,269.768250 147.880722,272.169312 
	C126.100563,278.642975 108.902458,291.300262 97.572540,311.533539 
	C90.811386,323.607788 87.358109,336.653748 84.382347,349.955444 
	C78.926041,374.345245 75.753418,398.947144 77.022736,424.906830 
	C77.700981,433.608704 77.681770,442.435211 79.209465,450.985291 
	C81.989128,466.542297 84.915718,482.152191 89.187614,497.344482 
	C95.233192,518.844666 104.412498,538.822632 122.665169,553.250793 
	C131.674988,560.372803 141.584549,565.218750 153.852173,566.992126 
	C156.783295,567.316162 159.713226,567.907959 162.645737,567.921021 
	C182.799271,568.010620 202.953339,567.985535 223.107224,567.971497 
	C224.365112,567.970581 225.622833,567.750610 227.125244,567.609619 
	C227.125244,551.916870 227.032043,536.603394 227.149872,521.291504 
	C227.284012,503.860077 227.606522,486.430145 227.985901,468.188782 
	C229.338699,462.497986 230.691498,456.807190 232.692474,450.765503 
	C235.161774,445.196472 237.631073,439.627411 240.020233,434.012054 
	C240.020233,434.012054 240.062424,434.094421 240.691772,433.814667 
	C242.166855,431.557434 243.641937,429.300201 245.702759,426.803009 
	C246.149887,425.907410 246.597031,425.011841 247.650497,423.849823 
	C248.139572,422.914398 248.628647,421.979004 249.732620,420.778503 
	C254.058945,416.448212 258.069397,411.735077 262.769226,407.857513 
	C278.542999,394.843628 296.318848,386.279266 317.968506,384.931885 
	C356.562561,384.940735 395.156677,384.910095 433.750641,384.980438 
	C446.816010,385.004242 459.775635,384.401733 472.229523,379.949310 
	C482.476379,376.285858 492.368256,371.953949 500.680542,364.072144 
	C500.680542,364.072144 501.004700,363.807220 501.632690,363.710083 
	C502.122192,362.826599 502.611725,361.943146 503.026031,361.024841 
	C503.026031,361.024841 503.044586,361.105591 503.555115,360.926758 
	C503.747040,360.630920 503.938934,360.335114 504.693573,359.830536 
	C505.485535,358.950897 506.277496,358.071259 507.684723,356.891907 
	C517.213562,347.518890 524.716248,336.750092 526.001465,323.212402 
	C527.139465,311.225189 526.690796,299.087311 527.131592,286.090607 
	C527.144836,245.232544 527.178833,204.374451 527.120117,163.516495 
	C527.116577,161.051697 526.374023,158.587952 525.576111,155.967239 
	C525.576111,155.967239 525.149536,155.922134 525.057556,155.191452 
	C524.984619,154.460754 524.911682,153.730042 525.041687,152.199875 
	C524.366821,149.891022 523.602051,147.604080 523.032349,145.269562 
	C520.304138,134.090912 514.358215,124.584435 506.688568,116.364578 
	C493.420898,102.145187 476.512604,94.388832 457.549225,91.031837 
	C445.401459,88.881371 433.186523,87.110497 420.133514,85.020981 
	C418.081848,85.067017 416.030182,85.113052 413.333008,85.020935 
	C412.897797,85.066971 412.462585,85.113014 411.211060,85.016457 
	C409.833282,84.952835 408.455536,84.889214 406.568085,84.153992 
	C403.380554,84.115189 400.192993,84.076385 396.480072,83.926064 
	C396.313904,83.992699 396.147705,84.059334 395.458527,84.104881 
	C395.272034,84.387863 395.085541,84.670853 394.980499,84.977531 
	C394.980499,84.977531 394.939545,84.903259 394.291260,84.988518 
	C393.860931,85.047134 393.430573,85.105751 392.073273,85.022552 
	C390.247467,85.014748 388.413696,84.893410 386.597473,85.021515 
	C382.060822,85.341492 377.532166,85.774734 372.125885,86.020187 
	C366.458679,86.346817 360.787933,86.625771 355.127350,87.042519 
	C354.065369,87.120697 353.043915,87.749603 351.194336,88.006111 
	C348.795898,88.393883 346.397461,88.781654 343.213989,89.045448 
	C339.962799,89.988487 336.767792,91.296944 333.450012,91.806717 
	C323.082092,93.399773 312.823181,95.341919 302.285278,98.998589 
	C300.815735,99.647858 299.346161,100.297119 297.223572,100.999741 
	C296.468567,101.399628 295.713562,101.799522 294.440125,102.110062 
	C294.033478,102.417458 293.626831,102.724854 293.056061,102.953331 
	C293.056061,102.953331 292.969666,103.113632 292.424652,103.087700 
	C292.003296,103.388161 291.581940,103.688622 291.013641,103.944260 
	C291.013641,103.944260 290.955750,104.086548 290.455292,104.133659 
M260.972290,642.998840 
	C260.996857,644.331360 260.820465,645.703674 261.075378,646.990601 
	C267.215637,677.989136 286.001373,697.873291 315.453094,707.953064 
	C334.564728,714.493896 354.613220,716.846619 374.582458,717.692505 
	C391.913971,718.426758 409.433319,717.392578 426.721588,715.661316 
	C441.185181,714.212891 455.535004,711.070923 469.750519,707.860962 
	C483.743652,704.701294 497.109558,699.542419 508.279083,690.129333 
	C520.823120,679.557861 526.140442,664.947815 526.704041,649.444885 
	C527.689392,622.334778 526.913635,595.160645 526.543823,567.219482 
	C524.557129,567.146362 522.570496,567.011353 520.583740,567.009094 
	C472.734802,566.955872 424.885864,566.916748 377.007324,565.953918 
	C377.018127,555.676575 377.028931,545.399292 377.966492,535.021790 
	C454.296753,535.014832 530.627014,535.015137 606.957275,534.961792 
	C609.026245,534.960388 611.094849,534.380432 614.049744,534.088989 
	C619.256897,533.401062 624.512634,532.968018 629.663330,531.984314 
	C666.130920,525.019958 689.410461,503.291931 698.797485,467.681519 
	C703.457947,450.001862 705.686157,431.681183 709.019775,413.651428 
	C711.907715,398.032135 711.597229,382.280579 709.826843,366.655273 
	C708.205444,352.345795 705.805298,338.078766 702.879456,323.973236 
	C698.126343,301.058502 691.644897,278.741302 676.204651,260.204926 
	C664.197632,245.790283 649.401550,236.562668 629.758301,234.232376 
	C606.575928,234.232376 583.393616,234.232376 560.165466,234.232376 
	C560.165466,264.140625 560.165466,293.546997 560.028931,323.821228 
	C559.692139,326.089722 559.288330,328.350555 559.029114,330.627869 
	C556.512939,352.727997 546.173035,371.120575 531.297058,386.992065 
	C515.519470,403.825409 495.822235,413.696381 472.047058,417.027649 
	C430.086853,417.018524 388.126678,416.997925 346.166504,417.040222 
	C344.394745,417.042023 342.623596,417.628357 340.210968,417.676422 
	C336.734863,417.836487 333.170502,417.554749 329.797028,418.228577 
	C308.385834,422.505615 289.606567,431.618744 275.599915,448.946075 
	C267.389832,459.102631 261.389191,470.286560 260.227722,484.325806 
	C260.152649,484.983948 260.011902,485.642120 260.011780,486.300262 
	C260.000824,537.044006 259.994476,587.787720 260.039154,638.531372 
	C260.040222,639.737488 260.621979,640.942993 260.972290,642.998840 
z"/>
<path fill="#FFE400" opacity="1.000000" stroke="none" 
	d="
M630.397400,234.870621 
	C649.401550,236.562668 664.197632,245.790283 676.204651,260.204926 
	C691.644897,278.741302 698.126343,301.058502 702.879456,323.973236 
	C705.805298,338.078766 708.205444,352.345795 709.826843,366.655273 
	C711.597229,382.280579 711.907715,398.032135 709.019775,413.651428 
	C705.686157,431.681183 703.457947,450.001862 698.797485,467.681519 
	C689.410461,503.291931 666.130920,525.019958 629.663330,531.984314 
	C624.512634,532.968018 619.256897,533.401062 613.126709,534.057251 
	C535.345459,534.017090 458.487244,534.002075 381.629059,534.046814 
	C380.099091,534.047729 378.569519,534.747986 377.039734,535.121948 
	C377.028931,545.399292 377.018127,555.676575 377.283691,566.742554 
	C379.529846,567.687439 381.499542,567.978943 383.469421,567.980225 
	C431.271576,568.010010 479.073700,568.008911 526.875854,568.013367 
	C526.913635,595.160645 527.689392,622.334778 526.704041,649.444885 
	C526.140442,664.947815 520.823120,679.557861 508.279083,690.129333 
	C497.109558,699.542419 483.743652,704.701294 469.750519,707.860962 
	C455.535004,711.070923 441.185181,714.212891 426.721588,715.661316 
	C409.433319,717.392578 391.913971,718.426758 374.582458,717.692505 
	C354.613220,716.846619 334.564728,714.493896 315.453094,707.953064 
	C286.001373,697.873291 267.215637,677.989136 261.075378,646.990601 
	C260.820465,645.703674 260.996857,644.331360 260.973206,642.095642 
	C260.949066,588.711487 260.924011,536.230469 260.898987,483.749512 
	C261.389191,470.286560 267.389832,459.102631 275.599915,448.946075 
	C289.606567,431.618744 308.385834,422.505615 329.797028,418.228577 
	C333.170502,417.554749 336.734863,417.836487 341.012512,417.828491 
	C383.943787,417.987030 426.073517,418.002563 468.203186,417.964752 
	C469.792908,417.963318 471.382172,417.444855 472.971649,417.167297 
	C495.822235,413.696381 515.519470,403.825409 531.297058,386.992065 
	C546.173035,371.120575 556.512939,352.727997 559.029114,330.627869 
	C559.288330,328.350555 559.692139,326.089722 560.356567,323.070374 
	C560.788696,320.502289 560.982727,318.685150 560.984070,316.867859 
	C561.003113,291.399658 561.104004,265.930542 560.892090,240.464096 
	C560.855286,236.035645 562.082092,234.855911 566.481750,234.894577 
	C587.785278,235.081757 609.091858,234.913132 630.397400,234.870621 
M455.111938,646.529480 
	C461.885559,650.703430 469.109222,652.025940 476.731964,649.461792 
	C488.517273,645.497437 495.771942,632.097107 492.871063,619.990601 
	C489.908752,607.627747 477.403229,599.646179 464.627075,601.964111 
	C454.027649,603.887085 446.028351,611.151855 444.257568,621.956726 
	C442.642090,631.813843 446.342712,640.055176 455.111938,646.529480 
z"/>
<path fill="#007AFB" opacity="1.000000" stroke="none" 
	d="
M395.981537,84.125969 
	C396.147705,84.059334 396.313904,83.992699 396.830627,84.367393 
	C400.480042,84.814346 403.778900,84.819962 407.077759,84.825584 
	C408.455536,84.889214 409.833282,84.952835 411.769684,85.286057 
	C412.878387,85.423462 413.428436,85.291275 413.978516,85.159088 
	C416.030182,85.113052 418.081848,85.067017 420.632751,85.431396 
	C423.866547,87.244370 426.466156,89.382133 429.360657,89.913521 
	C438.544189,91.599472 447.809296,92.964142 457.097961,93.914383 
	C464.249573,94.645996 471.019928,96.486504 477.292175,99.745010 
	C497.182678,110.078346 513.799133,123.508644 520.350769,146.312866 
	C521.056335,148.768768 523.305481,150.781204 524.838684,152.999344 
	C524.911682,153.730042 524.984619,154.460754 524.794128,155.811432 
	C524.021606,159.016724 523.142334,161.590958 523.064392,164.189194 
	C522.606140,179.473114 522.260193,194.761505 522.027161,210.050690 
	C521.881226,219.627350 522.185791,229.213043 521.928772,238.785034 
	C521.778320,244.386536 520.143555,250.025986 520.547791,255.548004 
	C521.329224,266.223328 521.631653,276.819916 518.586975,287.116699 
	C517.944275,289.290131 520.295471,294.482758 515.057251,293.684631 
	C510.121857,292.932678 514.126343,289.010223 513.626526,286.272919 
	C511.403473,286.526611 509.325897,286.718811 507.261932,287.008118 
	C502.200470,287.717651 499.064423,286.047821 497.916687,280.639679 
	C497.285339,277.664764 495.506592,274.933380 494.251953,272.107574 
	C488.071869,274.150391 486.156281,268.964417 482.685577,266.307770 
	C479.436035,263.820374 475.659393,261.867889 471.857117,260.308014 
	C469.134552,259.191071 465.986908,259.110443 463.028900,258.567444 
	C460.140686,260.521088 457.889862,258.670471 455.611542,256.191803 
	C454.617676,255.110580 453.450562,253.929596 452.129303,253.483643 
	C450.890259,253.065399 449.343597,253.634048 447.932983,253.627121 
	C446.521515,253.620178 445.057709,253.637985 443.714020,253.280029 
	C442.200012,252.876724 440.143250,251.118393 439.452484,251.593231 
	C436.130524,253.876709 433.093994,256.612885 430.140167,259.384430 
	C426.954620,262.373413 423.910126,265.520844 420.923157,268.710632 
	C418.617401,271.172913 416.524384,273.833099 414.278534,276.353363 
	C413.316406,277.433044 412.356689,278.637634 411.140594,279.349152 
	C398.810547,286.563385 383.926361,286.174255 371.281525,292.766663 
	C366.866333,295.068542 361.430084,295.411804 355.654968,296.850037 
	C353.624969,294.669708 350.993713,295.556976 347.406586,297.487061 
	C343.618500,299.525208 338.691254,301.272736 334.663300,300.630035 
	C327.835236,299.540466 323.051025,303.248077 317.623444,305.470825 
	C312.333862,307.637024 307.261414,310.360260 302.196075,313.033081 
	C300.395721,313.983154 297.492371,315.511932 297.499481,316.762787 
	C297.532776,322.612427 292.704865,323.122253 289.344208,325.371674 
	C288.025940,326.253998 286.456177,327.533173 286.080017,328.923553 
	C283.839050,337.206573 282.414948,345.804749 274.828003,352.016113 
	C276.412781,352.715637 277.538910,353.212708 278.820068,353.778198 
	C277.930511,358.094482 279.470093,360.947449 283.705444,362.556519 
	C285.290344,363.158661 286.403992,364.905731 287.879761,365.915619 
	C289.564972,367.068878 291.306854,368.325958 293.216370,368.923035 
	C296.463013,369.938232 299.959656,370.186737 303.161072,371.302917 
	C305.527893,372.128113 307.623535,373.771729 309.775024,375.151978 
	C310.545410,375.646149 311.760406,376.573181 311.655396,377.063446 
	C311.457550,377.987061 310.470764,379.429260 309.773712,379.451385 
	C303.235016,379.658875 298.014069,383.240356 292.215240,385.499756 
	C283.500702,388.895081 275.221039,392.666229 267.924591,398.531677 
	C266.776886,399.454254 265.309967,399.973755 264.133911,400.868073 
	C259.443054,404.434998 254.218582,407.539093 250.310211,411.832703 
	C245.899109,416.678528 242.562943,422.537262 238.995377,428.106720 
	C235.522858,433.527802 231.748489,438.880859 229.216660,444.743195 
	C226.795624,450.349060 223.967819,456.057281 224.480896,462.644226 
	C224.599899,464.171967 223.086212,466.008636 221.947601,467.393982 
	C221.068710,468.463379 219.538025,469.735016 218.415710,469.631409 
	C217.528229,469.549561 216.682022,467.582336 216.069839,466.329071 
	C215.350113,464.855621 214.952713,463.228668 214.327469,461.704376 
	C212.853638,458.111389 211.612793,454.380157 209.727921,451.012604 
	C208.342209,448.536835 206.085815,446.548401 204.217422,444.342804 
	C203.504913,445.850739 202.864243,447.399536 202.042114,448.845123 
	C201.741348,449.373993 200.804657,449.542511 200.507080,450.071686 
	C197.730682,455.008911 193.983231,459.709869 192.566818,465.025452 
	C190.700195,472.030457 190.545044,479.516052 189.911789,486.817383 
	C189.408661,492.618256 189.025177,498.456726 189.113922,504.270477 
	C189.160553,507.323914 190.237717,510.385284 191.019394,513.398987 
	C192.854370,520.473572 192.641525,528.153870 197.550247,534.326721 
	C200.207977,537.668823 202.327423,541.437195 204.961105,544.800781 
	C207.367554,547.874023 211.844223,547.786621 214.584915,544.883423 
	C215.731171,543.669189 216.798874,542.380737 217.902283,541.126099 
	C218.993866,545.441101 219.246643,549.364502 218.854370,553.222290 
	C218.720230,554.541321 217.093582,556.595154 215.931778,556.757263 
	C212.417099,557.247620 208.778198,556.754150 205.219620,557.040527 
	C193.514114,557.982666 181.806885,558.951416 170.130707,560.195190 
	C160.345673,561.237427 150.364731,566.233032 141.221024,558.213928 
	C141.111572,558.117981 140.880508,558.173340 140.744568,558.093079 
	C134.096954,554.169739 126.544685,551.224609 120.996490,546.107056 
	C108.974648,535.018311 102.131729,520.210754 95.415306,505.549469 
	C94.203140,502.903381 93.757263,499.898163 93.029984,497.040314 
	C92.305962,494.195312 91.637451,491.334808 91.013268,488.466187 
	C90.630104,486.705231 90.946053,484.465118 89.961502,483.220673 
	C86.385231,478.700226 87.227478,473.532135 86.911758,468.440125 
	C86.755569,465.921112 86.071060,463.254761 84.922775,461.015472 
	C82.653252,456.589630 81.610558,452.418213 82.574150,447.213470 
	C84.104897,438.945404 82.478722,430.920197 77.165215,424.001343 
	C75.753418,398.947144 78.926041,374.345245 84.382347,349.955444 
	C87.358109,336.653748 90.811386,323.607788 97.572540,311.533539 
	C108.902458,291.300262 126.100563,278.642975 147.880722,272.169312 
	C155.958923,269.768250 164.616470,269.316376 173.570953,268.349792 
	C175.621231,269.149597 177.105286,269.921356 178.600327,269.943237 
	C186.836716,270.063721 195.075790,270.001068 203.313934,270.001038 
	C217.321487,270.001007 231.329025,270.000885 245.336578,270.000702 
	C259.068726,270.000519 272.800842,270.000153 286.532990,270.000031 
	C300.019043,269.999908 313.505096,270.000000 326.991150,270.000000 
	C340.475525,270.000000 353.961243,269.885651 367.443756,270.043945 
	C375.228302,270.135284 383.005371,270.745148 390.790192,270.971985 
	C395.867950,271.119965 400.953522,271.001892 406.035614,270.998260 
	C412.615845,270.993530 415.509155,269.248688 416.039551,262.748688 
	C416.638062,255.414764 416.400360,247.908081 415.556885,240.588242 
	C414.567474,232.001740 409.606049,231.506866 399.530640,232.000305 
	C393.042084,232.000000 387.021637,232.000000 380.748993,231.719421 
	C373.664093,231.625900 366.831451,231.812943 359.530273,231.999756 
	C352.041595,231.999680 345.021393,231.999847 337.600525,231.950546 
	C331.799469,231.933792 326.399109,231.966492 320.530273,231.999100 
	C313.041595,231.998734 306.021393,231.998459 298.706787,231.702209 
	C292.608093,231.603027 286.803802,231.799805 280.625153,231.997009 
	C279.502258,231.996567 278.753693,231.995697 277.913055,231.600143 
	C274.988953,230.803635 272.164978,230.141098 269.323273,230.053162 
	C263.016693,229.858032 262.970306,229.905304 262.993500,223.512405 
	C263.022125,215.608444 263.005859,207.704285 263.002380,199.800217 
	C262.999847,194.060226 263.085266,188.317978 262.953125,182.580841 
	C262.787781,175.402222 262.131592,168.220734 262.295898,161.054443 
	C262.382568,157.271973 263.647003,153.489716 264.599457,149.763550 
	C265.205780,147.391632 266.527161,145.183243 266.989777,142.797211 
	C268.945160,132.711960 273.578217,123.969002 280.796265,116.860985 
	C287.549255,110.210938 295.607605,105.512459 304.610107,102.059196 
	C314.297211,98.343361 323.826935,95.044144 334.380493,94.690926 
	C337.806396,94.576256 342.687927,94.246887 343.999023,89.169426 
	C346.397461,88.781654 348.795898,88.393883 351.682220,88.428467 
	C359.331757,92.472046 368.901611,91.236984 373.000305,86.162521 
	C377.532166,85.774734 382.060822,85.341492 386.597473,85.021515 
	C388.413696,84.893410 390.247467,85.014748 392.517334,85.495056 
	C391.526642,86.644974 390.130890,87.777954 388.649017,87.904831 
	C385.577942,88.167770 381.818237,86.742500 379.476440,88.047592 
	C370.244385,93.192642 360.427521,93.317345 350.400085,93.049385 
	C348.815460,93.007027 347.196991,93.552887 345.622284,93.940979 
	C340.244019,95.266495 334.833344,96.488853 329.519379,98.039604 
	C323.103668,99.911880 316.752533,102.015457 310.419037,104.153908 
	C308.268372,104.880066 306.259460,106.023521 304.179871,106.963234 
	C301.364594,108.235374 298.022217,108.911583 295.826874,110.873764 
	C290.161743,115.937157 284.661682,121.281677 279.797760,127.100746 
	C277.653381,129.666229 276.927673,133.583481 276.065918,137.014633 
	C274.892548,141.686539 274.205322,146.480545 273.302948,151.257706 
	C274.924347,153.033752 276.961243,155.264938 278.998138,157.496124 
	C278.457214,157.562332 277.916290,157.628540 277.375366,157.694763 
	C277.375366,162.399902 277.046448,167.134125 277.458923,171.802811 
	C277.970337,177.591446 279.272125,183.306671 279.899994,189.089722 
	C280.395050,193.649307 280.386871,198.263535 280.655609,203.991257 
	C275.204132,208.864105 269.467438,215.441666 267.010712,223.724365 
	C271.274048,224.514114 274.378906,225.128845 277.498627,225.655685 
	C280.431335,226.150940 283.371216,226.863815 286.322693,226.944946 
	C302.437775,227.387955 318.556213,227.773300 334.676025,227.944870 
	C340.790222,228.009949 346.920624,227.104935 353.026184,227.273758 
	C359.286743,227.446854 365.523285,228.857880 371.775146,228.894104 
	C381.893036,228.952744 392.016602,228.370529 402.132965,227.944824 
	C403.403320,227.891357 404.644623,227.146942 407.169464,226.293213 
	C403.260315,223.325272 400.718567,220.370636 397.521301,219.187607 
	C391.410767,216.926590 385.011871,215.134613 378.579346,214.122574 
	C367.360413,212.357498 356.016296,211.398941 344.751251,209.902023 
	C343.442078,209.728058 341.346466,208.350189 341.283691,207.418137 
	C341.157440,205.542633 341.574982,202.649323 342.837891,201.835037 
	C347.735779,198.677094 353.145630,196.326294 358.175629,193.354630 
	C360.634857,191.901718 362.780121,189.853439 364.884705,187.879700 
	C367.743744,185.198410 369.994446,181.545074 373.288849,179.727493 
	C378.157867,177.041199 383.813568,176.687668 389.450134,177.637146 
	C392.703308,178.185150 397.343201,179.904175 399.046936,178.427917 
	C403.577728,174.501968 405.573639,176.440536 407.956421,180.170853 
	C408.244202,180.621384 409.257629,181.061813 409.697113,180.891983 
	C414.192902,179.154602 417.872314,182.308533 421.875183,182.706100 
	C426.715332,183.186798 429.495361,184.413254 429.303772,191.178452 
	C432.255981,189.081497 434.165161,187.725388 436.902344,185.781174 
	C437.527679,186.720200 438.032928,188.460297 439.013306,188.790726 
	C445.064850,190.830338 450.081665,194.588379 455.419891,197.870682 
	C458.289703,199.635254 461.958984,200.067917 464.920776,201.722351 
	C468.850067,203.917267 472.267303,206.091507 477.268463,206.595428 
	C481.173309,206.988907 484.627167,211.809738 488.298431,214.641159 
	C488.685883,214.939972 489.272186,214.999420 489.622620,215.324661 
	C491.281311,216.864014 493.260864,218.220551 494.444977,220.076752 
	C497.599792,225.022247 503.683655,226.715027 508.518921,223.604889 
	C511.124390,221.929016 513.687805,220.187714 516.613586,218.248291 
	C517.161804,215.599838 518.094849,212.233795 518.520325,208.804779 
	C519.476318,201.100128 520.520264,193.379700 520.873291,185.635834 
	C521.128296,180.040619 520.007996,174.393372 520.077637,168.776474 
	C520.174377,160.972519 522.994690,152.903793 517.145325,145.873352 
	C516.968262,145.660522 517.138184,145.190491 517.009949,144.900742 
	C515.038391,140.446716 513.910645,135.262543 510.875732,131.709839 
	C504.470306,124.211693 497.656677,116.802277 489.894440,110.799728 
	C482.779785,105.297935 474.511932,100.924873 466.156799,97.512222 
	C460.199585,95.079025 453.189362,95.353737 446.768982,93.893036 
	C438.096954,91.920074 429.155975,93.668694 420.366058,90.313248 
	C413.685455,87.763000 405.677551,88.775925 398.299133,87.882355 
	C397.076935,87.734337 396.054382,85.937912 394.939545,84.903259 
	C394.939545,84.903259 394.980499,84.977531 395.165985,84.894669 
	C395.644043,84.659050 395.854065,84.430435 395.981537,84.125969 
M266.048492,157.685379 
	C266.493927,159.336044 266.939392,160.986710 267.384827,162.637375 
	C267.842529,162.622284 268.300201,162.607193 268.757874,162.592102 
	C269.411987,159.263657 270.066071,155.935211 270.720154,152.606750 
	C270.294647,152.396790 269.869141,152.186829 269.443634,151.976852 
	C268.347137,153.628525 267.250671,155.280197 266.048492,157.685379 
z"/>
<path fill="#0077F6" opacity="1.000000" stroke="none" 
	d="
M77.093979,424.454102 
	C82.478722,430.920197 84.104897,438.945404 82.574150,447.213470 
	C81.610558,452.418213 82.653252,456.589630 84.922775,461.015472 
	C86.071060,463.254761 86.755569,465.921112 86.911758,468.440125 
	C87.227478,473.532135 86.385231,478.700226 89.961502,483.220673 
	C90.946053,484.465118 90.630104,486.705231 91.013268,488.466187 
	C91.637451,491.334808 92.305962,494.195312 93.029984,497.040314 
	C93.757263,499.898163 94.203140,502.903381 95.415306,505.549469 
	C102.131729,520.210754 108.974648,535.018311 120.996490,546.107056 
	C126.544685,551.224609 134.096954,554.169739 140.744568,558.093079 
	C140.880508,558.173340 141.111572,558.117981 141.221024,558.213928 
	C150.364731,566.233032 160.345673,561.237427 170.130707,560.195190 
	C181.806885,558.951416 193.514114,557.982666 205.219620,557.040527 
	C208.778198,556.754150 212.417099,557.247620 215.931778,556.757263 
	C217.093582,556.595154 218.720230,554.541321 218.854370,553.222290 
	C219.246643,549.364502 218.993866,545.441101 217.902283,541.126099 
	C216.798874,542.380737 215.731171,543.669189 214.584915,544.883423 
	C211.844223,547.786621 207.367554,547.874023 204.961105,544.800781 
	C202.327423,541.437195 200.207977,537.668823 197.550247,534.326721 
	C192.641525,528.153870 192.854370,520.473572 191.019394,513.398987 
	C190.237717,510.385284 189.160553,507.323914 189.113922,504.270477 
	C189.025177,498.456726 189.408661,492.618256 189.911789,486.817383 
	C190.545044,479.516052 190.700195,472.030457 192.566818,465.025452 
	C193.983231,459.709869 197.730682,455.008911 200.507080,450.071686 
	C200.804657,449.542511 201.741348,449.373993 202.042114,448.845123 
	C202.864243,447.399536 203.504913,445.850739 204.217422,444.342804 
	C206.085815,446.548401 208.342209,448.536835 209.727921,451.012604 
	C211.612793,454.380157 212.853638,458.111389 214.327469,461.704376 
	C214.952713,463.228668 215.350113,464.855621 216.069839,466.329071 
	C216.682022,467.582336 217.528229,469.549561 218.415710,469.631409 
	C219.538025,469.735016 221.068710,468.463379 221.947601,467.393982 
	C223.086212,466.008636 224.599899,464.171967 224.480896,462.644226 
	C223.967819,456.057281 226.795624,450.349060 229.216660,444.743195 
	C231.748489,438.880859 235.522858,433.527802 238.995377,428.106720 
	C242.562943,422.537262 245.899109,416.678528 250.310211,411.832703 
	C254.218582,407.539093 259.443054,404.434998 264.133911,400.868073 
	C265.309967,399.973755 266.776886,399.454254 267.924591,398.531677 
	C275.221039,392.666229 283.500702,388.895081 292.215240,385.499756 
	C298.014069,383.240356 303.235016,379.658875 309.773712,379.451385 
	C310.470764,379.429260 311.457550,377.987061 311.655396,377.063446 
	C311.760406,376.573181 310.545410,375.646149 309.775024,375.151978 
	C307.623535,373.771729 305.527893,372.128113 303.161072,371.302917 
	C299.959656,370.186737 296.463013,369.938232 293.216370,368.923035 
	C291.306854,368.325958 289.564972,367.068878 287.879761,365.915619 
	C286.403992,364.905731 285.290344,363.158661 283.705444,362.556519 
	C279.470093,360.947449 277.930511,358.094482 278.820068,353.778198 
	C277.538910,353.212708 276.412781,352.715637 274.828003,352.016113 
	C282.414948,345.804749 283.839050,337.206573 286.080017,328.923553 
	C286.456177,327.533173 288.025940,326.253998 289.344208,325.371674 
	C292.704865,323.122253 297.532776,322.612427 297.499481,316.762787 
	C297.492371,315.511932 300.395721,313.983154 302.196075,313.033081 
	C307.261414,310.360260 312.333862,307.637024 317.623444,305.470825 
	C323.051025,303.248077 327.835236,299.540466 334.663300,300.630035 
	C338.691254,301.272736 343.618500,299.525208 347.406586,297.487061 
	C350.993713,295.556976 353.624969,294.669708 355.654968,296.850037 
	C361.430084,295.411804 366.866333,295.068542 371.281525,292.766663 
	C383.926361,286.174255 398.810547,286.563385 411.140594,279.349152 
	C412.356689,278.637634 413.316406,277.433044 414.278534,276.353363 
	C416.524384,273.833099 418.617401,271.172913 420.923157,268.710632 
	C423.910126,265.520844 426.954620,262.373413 430.140167,259.384430 
	C433.093994,256.612885 436.130524,253.876709 439.452484,251.593231 
	C440.143250,251.118393 442.200012,252.876724 443.714020,253.280029 
	C445.057709,253.637985 446.521515,253.620178 447.932983,253.627121 
	C449.343597,253.634048 450.890259,253.065399 452.129303,253.483643 
	C453.450562,253.929596 454.617676,255.110580 455.611542,256.191803 
	C457.889862,258.670471 460.140686,260.521088 463.028900,258.567444 
	C465.986908,259.110443 469.134552,259.191071 471.857117,260.308014 
	C475.659393,261.867889 479.436035,263.820374 482.685577,266.307770 
	C486.156281,268.964417 488.071869,274.150391 494.251953,272.107574 
	C495.506592,274.933380 497.285339,277.664764 497.916687,280.639679 
	C499.064423,286.047821 502.200470,287.717651 507.261932,287.008118 
	C509.325897,286.718811 511.403473,286.526611 513.626526,286.272919 
	C514.126343,289.010223 510.121857,292.932678 515.057251,293.684631 
	C520.295471,294.482758 517.944275,289.290131 518.586975,287.116699 
	C521.631653,276.819916 521.329224,266.223328 520.547791,255.548004 
	C520.143555,250.025986 521.778320,244.386536 521.928772,238.785034 
	C522.185791,229.213043 521.881226,219.627350 522.027161,210.050690 
	C522.260193,194.761505 522.606140,179.473114 523.064392,164.189194 
	C523.142334,161.590958 524.021606,159.016724 524.840088,156.176773 
	C525.149536,155.922134 525.576111,155.967239 525.783813,156.433075 
	C525.993530,157.932831 525.995544,158.966766 525.717651,160.258240 
	C525.633423,162.685043 525.829224,164.854294 526.028809,167.392838 
	C526.030212,168.500717 526.027771,169.239319 525.759155,170.190125 
	C525.670532,171.608948 525.848022,172.815567 526.028748,174.478622 
	C526.026062,178.286453 526.020203,181.637833 525.724731,185.263092 
	C525.628235,188.361542 525.821289,191.186127 526.017944,194.467651 
	C526.023438,198.276093 526.025452,201.627579 525.679688,205.175125 
	C523.098267,209.817825 523.447083,216.644730 526.031494,219.385941 
	C526.029968,220.503433 526.026062,221.248367 525.720886,222.284332 
	C525.250244,228.531509 524.996277,234.486755 524.932312,240.444031 
	C524.849426,248.168747 524.931335,255.895111 524.916504,263.620728 
	C524.906555,268.766327 524.921997,273.913544 524.800232,279.057037 
	C524.616333,286.827179 523.215454,294.753082 524.299438,302.331329 
	C526.778809,319.664795 521.901978,334.583282 512.115723,348.473785 
	C510.189545,351.207764 508.739227,354.276978 507.069458,357.191589 
	C506.277496,358.071259 505.485535,358.950897 504.164459,360.035065 
	C503.438416,360.528259 503.241516,360.816925 503.044617,361.105591 
	C503.044586,361.105591 503.026031,361.024841 502.723083,361.065674 
	C501.948303,362.006775 501.476501,362.907013 501.004700,363.807220 
	C501.004700,363.807220 500.680542,364.072144 500.067078,364.060364 
	C495.761871,365.747345 492.112854,367.547638 488.369476,369.123779 
	C480.411530,372.474304 472.643402,377.495117 464.365662,378.601929 
	C449.172150,380.633514 433.670044,380.437622 418.289337,380.954773 
	C410.570160,381.214325 402.832703,380.878326 395.107727,381.028656 
	C383.677155,381.251099 372.250793,381.683441 360.821777,381.995514 
	C347.897614,382.348480 334.970337,382.606598 322.050537,383.074951 
	C320.363983,383.136078 318.713898,384.201599 317.046906,384.801880 
	C296.318848,386.279266 278.542999,394.843628 262.769226,407.857513 
	C258.069397,411.735077 254.058945,416.448212 249.063202,420.950195 
	C247.943909,422.119995 247.494034,423.118134 247.044159,424.116241 
	C246.597031,425.011841 246.149887,425.907410 245.048141,426.943268 
	C242.949814,429.420502 241.506119,431.757446 240.062424,434.094421 
	C240.062424,434.094421 240.020233,434.012054 239.708649,434.063629 
	C235.058365,438.965820 231.768829,444.270203 232.044281,451.116394 
	C230.691498,456.807190 229.338699,462.497986 227.568619,468.663879 
	C226.101105,471.795410 224.299286,474.409027 224.145096,477.116486 
	C223.724747,484.496918 224.000153,491.916992 224.000107,499.321381 
	C223.999985,518.302063 224.002991,537.282715 223.998306,556.263367 
	C223.996628,563.124146 223.158585,563.901306 216.229630,564.009155 
	C196.485916,564.316467 176.742096,564.632202 157.001282,565.076050 
	C155.655289,565.106323 154.333725,566.223694 153.000793,566.835571 
	C141.584549,565.218750 131.674988,560.372803 122.665169,553.250793 
	C104.412498,538.822632 95.233192,518.844666 89.187614,497.344482 
	C84.915718,482.152191 81.989128,466.542297 79.209465,450.985291 
	C77.681770,442.435211 77.700981,433.608704 77.093979,424.454102 
M520.179077,314.919098 
	C519.922913,309.014343 519.666687,303.109619 519.410461,297.204895 
	C518.514038,297.076752 517.617615,296.948639 516.721191,296.820496 
	C516.147583,298.481812 515.204712,300.113251 515.067444,301.809875 
	C514.596130,307.633881 514.491394,313.486603 514.085632,319.317169 
	C513.711182,324.699158 513.129150,330.066742 512.638611,335.440704 
	C515.803772,329.116608 521.544556,323.795319 520.179077,314.919098 
M511.636688,337.879669 
	C507.506104,338.273254 506.938232,339.103058 508.107239,345.180756 
	C509.688904,342.223358 510.668640,340.391479 511.636688,337.879669 
z"/>
<path fill="#007AFD" opacity="1.000000" stroke="none" 
	d="
M394.615417,84.945885 
	C396.054382,85.937912 397.076935,87.734337 398.299133,87.882355 
	C405.677551,88.775925 413.685455,87.763000 420.366058,90.313248 
	C429.155975,93.668694 438.096954,91.920074 446.768982,93.893036 
	C453.189362,95.353737 460.199585,95.079025 466.156799,97.512222 
	C474.511932,100.924873 482.779785,105.297935 489.894440,110.799728 
	C497.656677,116.802277 504.470306,124.211693 510.875732,131.709839 
	C513.910645,135.262543 515.038391,140.446716 517.009949,144.900742 
	C517.138184,145.190491 516.968262,145.660522 517.145325,145.873352 
	C522.994690,152.903793 520.174377,160.972519 520.077637,168.776474 
	C520.007996,174.393372 521.128296,180.040619 520.873291,185.635834 
	C520.520264,193.379700 519.476318,201.100128 518.520325,208.804779 
	C518.094849,212.233795 517.161804,215.599838 516.613586,218.248291 
	C513.687805,220.187714 511.124390,221.929016 508.518921,223.604889 
	C503.683655,226.715027 497.599792,225.022247 494.444977,220.076752 
	C493.260864,218.220551 491.281311,216.864014 489.622620,215.324661 
	C489.272186,214.999420 488.685883,214.939972 488.298431,214.641159 
	C484.627167,211.809738 481.173309,206.988907 477.268463,206.595428 
	C472.267303,206.091507 468.850067,203.917267 464.920776,201.722351 
	C461.958984,200.067917 458.289703,199.635254 455.419891,197.870682 
	C450.081665,194.588379 445.064850,190.830338 439.013306,188.790726 
	C438.032928,188.460297 437.527679,186.720200 436.902344,185.781174 
	C434.165161,187.725388 432.255981,189.081497 429.303772,191.178452 
	C429.495361,184.413254 426.715332,183.186798 421.875183,182.706100 
	C417.872314,182.308533 414.192902,179.154602 409.697113,180.891983 
	C409.257629,181.061813 408.244202,180.621384 407.956421,180.170853 
	C405.573639,176.440536 403.577728,174.501968 399.046936,178.427917 
	C397.343201,179.904175 392.703308,178.185150 389.450134,177.637146 
	C383.813568,176.687668 378.157867,177.041199 373.288849,179.727493 
	C369.994446,181.545074 367.743744,185.198410 364.884705,187.879700 
	C362.780121,189.853439 360.634857,191.901718 358.175629,193.354630 
	C353.145630,196.326294 347.735779,198.677094 342.837891,201.835037 
	C341.574982,202.649323 341.157440,205.542633 341.283691,207.418137 
	C341.346466,208.350189 343.442078,209.728058 344.751251,209.902023 
	C356.016296,211.398941 367.360413,212.357498 378.579346,214.122574 
	C385.011871,215.134613 391.410767,216.926590 397.521301,219.187607 
	C400.718567,220.370636 403.260315,223.325272 407.169464,226.293213 
	C404.644623,227.146942 403.403320,227.891357 402.132965,227.944824 
	C392.016602,228.370529 381.893036,228.952744 371.775146,228.894104 
	C365.523285,228.857880 359.286743,227.446854 353.026184,227.273758 
	C346.920624,227.104935 340.790222,228.009949 334.676025,227.944870 
	C318.556213,227.773300 302.437775,227.387955 286.322693,226.944946 
	C283.371216,226.863815 280.431335,226.150940 277.498627,225.655685 
	C274.378906,225.128845 271.274048,224.514114 267.010712,223.724365 
	C269.467438,215.441666 275.204132,208.864105 280.655609,203.991257 
	C280.386871,198.263535 280.395050,193.649307 279.899994,189.089722 
	C279.272125,183.306671 277.970337,177.591446 277.458923,171.802811 
	C277.046448,167.134125 277.375366,162.399902 277.375366,157.694763 
	C277.916290,157.628540 278.457214,157.562332 278.998138,157.496124 
	C276.961243,155.264938 274.924347,153.033752 273.302948,151.257706 
	C274.205322,146.480545 274.892548,141.686539 276.065918,137.014633 
	C276.927673,133.583481 277.653381,129.666229 279.797760,127.100746 
	C284.661682,121.281677 290.161743,115.937157 295.826874,110.873764 
	C298.022217,108.911583 301.364594,108.235374 304.179871,106.963234 
	C306.259460,106.023521 308.268372,104.880066 310.419037,104.153908 
	C316.752533,102.015457 323.103668,99.911880 329.519379,98.039604 
	C334.833344,96.488853 340.244019,95.266495 345.622284,93.940979 
	C347.196991,93.552887 348.815460,93.007027 350.400085,93.049385 
	C360.427521,93.317345 370.244385,93.192642 379.476440,88.047592 
	C381.818237,86.742500 385.577942,88.167770 388.649017,87.904831 
	C390.130890,87.777954 391.526642,86.644974 392.980835,85.565956 
	C393.430573,85.105751 393.860931,85.047134 394.615417,84.945885 
M337.701538,152.847931 
	C335.923370,151.627899 333.981781,150.588318 332.397675,149.153961 
	C327.658569,144.862915 322.182983,143.152740 315.897369,144.010086 
	C310.544281,144.740250 305.203125,145.557892 299.463623,146.394104 
	C299.215790,146.017105 298.643707,145.216614 298.143372,144.373550 
	C296.067749,140.876129 293.145538,142.845947 290.597504,143.342285 
	C287.994659,143.849289 288.183960,145.587021 288.689240,147.914597 
	C289.468536,151.504379 289.905304,155.273743 289.761017,158.938339 
	C289.384399,168.504623 288.755371,178.067947 287.911041,187.604462 
	C287.667023,190.360596 286.352509,193.021927 285.528778,195.726715 
	C285.069794,195.632690 284.610809,195.538666 284.151855,195.444626 
	C284.255035,195.924088 284.284637,196.434875 284.473358,196.877899 
	C285.673431,199.694519 286.923645,202.489716 288.128967,205.304138 
	C290.405426,210.619568 293.620605,206.391495 296.445709,206.140366 
	C296.607697,206.125961 296.774506,206.177261 296.938965,206.176300 
	C307.419464,206.115494 317.954132,206.649017 328.354492,205.704147 
	C332.683746,205.310837 337.623505,202.645325 340.725403,199.482742 
	C348.849792,191.199387 350.585449,180.465988 348.483063,169.451477 
	C347.257538,163.031021 344.653503,156.764389 337.701538,152.847931 
z"/>
<path fill="#0077F4" opacity="1.000000" stroke="none" 
	d="
M399.998779,232.000610 
	C409.606049,231.506866 414.567474,232.001740 415.556885,240.588242 
	C416.400360,247.908081 416.638062,255.414764 416.039551,262.748688 
	C415.509155,269.248688 412.615845,270.993530 406.035614,270.998260 
	C400.953522,271.001892 395.867950,271.119965 390.790192,270.971985 
	C383.005371,270.745148 375.228302,270.135284 367.443756,270.043945 
	C353.961243,269.885651 340.475525,270.000000 326.991150,270.000000 
	C313.505096,270.000000 300.019043,269.999908 286.532990,270.000031 
	C272.800842,270.000153 259.068726,270.000519 245.336578,270.000702 
	C231.329025,270.000885 217.321487,270.001007 203.313934,270.001038 
	C195.075790,270.001068 186.836716,270.063721 178.600327,269.943237 
	C177.105286,269.921356 175.621231,269.149597 174.021774,268.327179 
	C173.911453,267.930328 173.901779,267.957977 174.373489,267.966980 
	C251.698288,267.985199 328.551392,268.000916 405.404449,267.956482 
	C406.930847,267.955627 408.456818,267.250671 409.983002,266.874207 
	C409.983002,266.874207 410.039917,266.425629 410.342102,265.940094 
	C410.478455,263.640625 410.312622,261.826660 410.146790,260.012726 
	C410.102081,254.977753 410.057343,249.942780 410.326324,244.155258 
	C410.484802,240.934036 410.329559,238.465378 410.174316,235.996704 
	C410.174316,235.996704 410.040863,235.571289 409.763184,235.020691 
	C406.323242,234.305161 403.161011,234.140213 399.998962,233.646469 
	C399.998993,232.878647 399.998871,232.439621 399.998779,232.000610 
z"/>
<path fill="#0079EC" opacity="1.000000" stroke="none" 
	d="
M317.507690,384.866882 
	C318.713898,384.201599 320.363983,383.136078 322.050537,383.074951 
	C334.970337,382.606598 347.897614,382.348480 360.821777,381.995514 
	C372.250793,381.683441 383.677155,381.251099 395.107727,381.028656 
	C402.832703,380.878326 410.570160,381.214325 418.289337,380.954773 
	C433.670044,380.437622 449.172150,380.633514 464.365662,378.601929 
	C472.643402,377.495117 480.411530,372.474304 488.369476,369.123779 
	C492.112854,367.547638 495.761871,365.747345 499.858612,364.079224 
	C492.368256,371.953949 482.476379,376.285858 472.229523,379.949310 
	C459.775635,384.401733 446.816010,385.004242 433.750641,384.980438 
	C395.156677,384.910095 356.562561,384.940735 317.507690,384.866882 
z"/>
<path fill="#0077F4" opacity="1.000000" stroke="none" 
	d="
M343.606506,89.107437 
	C342.687927,94.246887 337.806396,94.576256 334.380493,94.690926 
	C323.826935,95.044144 314.297211,98.343361 304.610107,102.059196 
	C295.607605,105.512459 287.549255,110.210938 280.796265,116.860985 
	C273.578217,123.969002 268.945160,132.711960 266.989777,142.797211 
	C266.527161,145.183243 265.205780,147.391632 264.599457,149.763550 
	C263.647003,153.489716 262.382568,157.271973 262.295898,161.054443 
	C262.131592,168.220734 262.787781,175.402222 262.953125,182.580841 
	C263.085266,188.317978 262.999847,194.060226 263.002380,199.800217 
	C263.005859,207.704285 263.022125,215.608444 262.993500,223.512405 
	C262.970306,229.905304 263.016693,229.858032 269.323273,230.053162 
	C272.164978,230.141098 274.988953,230.803635 277.446167,231.602203 
	C271.433624,231.664017 265.795898,231.329102 260.158173,230.994171 
	C260.490051,202.809830 260.821930,174.625473 261.804749,146.025360 
	C263.902679,142.885834 266.584778,140.367706 263.896301,136.955551 
	C263.943146,136.507401 263.989990,136.059265 264.311951,135.131531 
	C264.800385,134.385956 264.903229,134.082489 264.895569,133.741547 
	C264.895569,133.741547 264.906433,133.334106 265.355286,133.105347 
	C266.857025,131.465958 267.876617,130.028915 268.968811,128.649384 
	C273.077667,123.459572 277.065857,118.163902 281.388214,113.157341 
	C283.963593,110.174278 287.077789,107.656364 289.949768,104.929337 
	C289.949768,104.929344 289.992218,104.996399 290.180725,104.899429 
	C290.658783,104.640862 290.854279,104.402222 290.955750,104.086548 
	C290.955750,104.086548 291.013641,103.944260 291.353271,103.953392 
	C292.118500,103.679558 292.544067,103.396591 292.969666,103.113632 
	C292.969666,103.113632 293.056061,102.953331 293.388916,102.968124 
	C294.134064,102.721748 294.546295,102.460579 294.958557,102.199417 
	C295.713562,101.799522 296.468567,101.399628 297.946716,100.988419 
	C300.113037,100.367432 301.556244,99.757751 302.999420,99.148071 
	C312.823181,95.341919 323.082092,93.399773 333.450012,91.806717 
	C336.767792,91.296944 339.962799,89.988487 343.606506,89.107437 
z"/>
<path fill="#0079EC" opacity="1.000000" stroke="none" 
	d="
M153.426483,566.913818 
	C154.333725,566.223694 155.655289,565.106323 157.001282,565.076050 
	C176.742096,564.632202 196.485916,564.316467 216.229630,564.009155 
	C223.158585,563.901306 223.996628,563.124146 223.998306,556.263367 
	C224.002991,537.282715 223.999985,518.302063 224.000107,499.321381 
	C224.000153,491.916992 223.724747,484.496918 224.145096,477.116486 
	C224.299286,474.409027 226.101105,471.795410 227.499237,469.069275 
	C227.606522,486.430145 227.284012,503.860077 227.149872,521.291504 
	C227.032043,536.603394 227.125244,551.916870 227.125244,567.609619 
	C225.622833,567.750610 224.365112,567.970581 223.107224,567.971497 
	C202.953339,567.985535 182.799271,568.010620 162.645737,567.921021 
	C159.713226,567.907959 156.783295,567.316162 153.426483,566.913818 
z"/>
<path fill="#0077F6" opacity="1.000000" stroke="none" 
	d="
M524.940186,152.599609 
	C523.305481,150.781204 521.056335,148.768768 520.350769,146.312866 
	C513.799133,123.508644 497.182678,110.078346 477.292175,99.745010 
	C471.019928,96.486504 464.249573,94.645996 457.097961,93.914383 
	C447.809296,92.964142 438.544189,91.599472 429.360657,89.913521 
	C426.466156,89.382133 423.866547,87.244370 421.066833,85.505638 
	C433.186523,87.110497 445.401459,88.881371 457.549225,91.031837 
	C476.512604,94.388832 493.420898,102.145187 506.688568,116.364578 
	C514.358215,124.584435 520.304138,134.090912 523.032349,145.269562 
	C523.602051,147.604080 524.366821,149.891022 524.940186,152.599609 
z"/>
<path fill="#0079EC" opacity="1.000000" stroke="none" 
	d="
M507.377075,357.041748 
	C508.739227,354.276978 510.189545,351.207764 512.115723,348.473785 
	C521.901978,334.583282 526.778809,319.664795 524.299438,302.331329 
	C523.215454,294.753082 524.616333,286.827179 524.800232,279.057037 
	C524.921997,273.913544 524.906555,268.766327 524.916504,263.620728 
	C524.931335,255.895111 524.849426,248.168747 524.932312,240.444031 
	C524.996277,234.486755 525.250244,228.531509 525.722229,222.753754 
	C526.028992,242.550064 526.010315,262.168091 526.076538,281.785797 
	C526.082397,283.530121 526.640808,285.272614 526.942627,287.015961 
	C526.690796,299.087311 527.139465,311.225189 526.001465,323.212402 
	C524.716248,336.750092 517.213562,347.518890 507.377075,357.041748 
z"/>
<path fill="#009DFE" opacity="1.000000" stroke="none" 
	d="
M409.517822,266.930908 
	C408.456818,267.250671 406.930847,267.955627 405.404449,267.956482 
	C328.551392,268.000916 251.698288,267.985199 174.368866,267.949860 
	C175.759781,267.616364 177.626892,267.041412 179.494354,267.040192 
	C256.013763,266.990448 332.533234,266.992340 409.517822,266.930908 
z"/>
<path fill="#FFFF00" opacity="1.000000" stroke="none" 
	d="
M377.503113,535.071899 
	C378.569519,534.747986 380.099091,534.047729 381.629059,534.046814 
	C458.487244,534.002075 535.345459,534.017090 612.683655,534.047913 
	C611.094849,534.380432 609.026245,534.960388 606.957275,534.961792 
	C530.627014,535.015137 454.296753,535.014832 377.503113,535.071899 
z"/>
<path fill="#FFFF00" opacity="1.000000" stroke="none" 
	d="
M260.563354,484.037659 
	C260.924011,536.230469 260.949066,588.711487 260.953491,641.670654 
	C260.621979,640.942993 260.040222,639.737488 260.039154,638.531372 
	C259.994476,587.787720 260.000824,537.044006 260.011780,486.300262 
	C260.011902,485.642120 260.152649,484.983948 260.563354,484.037659 
z"/>
<path fill="#FFFF00" opacity="1.000000" stroke="none" 
	d="
M630.077881,234.551498 
	C609.091858,234.913132 587.785278,235.081757 566.481750,234.894577 
	C562.082092,234.855911 560.855286,236.035645 560.892090,240.464096 
	C561.104004,265.930542 561.003113,291.399658 560.984070,316.867859 
	C560.982727,318.685150 560.788696,320.502289 560.424866,322.636444 
	C560.165466,293.546997 560.165466,264.140625 560.165466,234.232376 
	C583.393616,234.232376 606.575928,234.232376 630.077881,234.551498 
z"/>
<path fill="#FFFF00" opacity="1.000000" stroke="none" 
	d="
M526.709839,567.616455 
	C479.073700,568.008911 431.271576,568.010010 383.469421,567.980225 
	C381.499542,567.978943 379.529846,567.687439 377.298492,567.203125 
	C424.885864,566.916748 472.734802,566.955872 520.583740,567.009094 
	C522.570496,567.011353 524.557129,567.146362 526.709839,567.616455 
z"/>
<path fill="#009DFE" opacity="1.000000" stroke="none" 
	d="
M399.998779,233.975281 
	C403.161011,234.140213 406.323242,234.305161 409.735596,234.799469 
	C362.136597,235.085922 314.287506,235.045517 266.438416,234.991302 
	C264.451141,234.989044 262.463959,234.857788 260.781189,234.396942 
	C267.724152,233.998047 274.362671,233.988815 281.468994,233.987885 
	C287.624481,233.989532 293.312256,233.982895 299.468506,233.986038 
	C306.958008,233.989456 313.979004,233.983078 321.466797,233.985565 
	C326.958435,233.987671 331.983276,233.980896 337.476196,233.982788 
	C345.959137,233.985428 353.973969,233.979401 362.458313,233.982758 
	C368.951843,233.987274 374.975922,233.982422 381.468201,233.986969 
	C387.957184,233.989319 393.977997,233.982300 399.998779,233.975281 
z"/>
<path fill="#FFFF00" opacity="1.000000" stroke="none" 
	d="
M472.509338,417.097473 
	C471.382172,417.444855 469.792908,417.963318 468.203186,417.964752 
	C426.073517,418.002563 383.943787,417.987030 341.333130,417.961487 
	C342.623596,417.628357 344.394745,417.042023 346.166504,417.040222 
	C388.126678,416.997925 430.086853,417.018524 472.509338,417.097473 
z"/>
<path fill="#009DFE" opacity="1.000000" stroke="none" 
	d="
M527.037109,286.553284 
	C526.640808,285.272614 526.082397,283.530121 526.076538,281.785797 
	C526.010315,262.168091 526.028992,242.550064 526.023499,222.462708 
	C526.026062,221.248367 526.029968,220.503433 526.033569,218.919617 
	C526.031311,213.713501 526.029358,209.346283 526.027466,204.979065 
	C526.025452,201.627579 526.023438,198.276093 526.020691,194.016205 
	C526.018005,190.401611 526.016174,187.695419 526.014343,184.989227 
	C526.020203,181.637833 526.026062,178.286453 526.031677,174.073853 
	C526.029419,172.134415 526.027344,171.056152 526.025330,169.977905 
	C526.027771,169.239319 526.030212,168.500717 526.032104,166.952438 
	C526.020142,164.095398 526.008850,162.048035 525.997559,160.000687 
	C525.995544,158.966766 525.993530,157.932831 525.983459,156.511322 
	C526.374023,158.587952 527.116577,161.051697 527.120117,163.516495 
	C527.178833,204.374451 527.144836,245.232544 527.037109,286.553284 
z"/>
<path fill="#0079EC" opacity="1.000000" stroke="none" 
	d="
M289.596985,104.975464 
	C287.077789,107.656364 283.963593,110.174278 281.388214,113.157341 
	C277.065857,118.163902 273.077667,123.459572 268.968811,128.649384 
	C267.876617,130.028915 266.857025,131.465958 265.470154,132.937042 
	C269.038177,120.109718 277.600281,111.237793 289.596985,104.975464 
z"/>
<path fill="#0077F4" opacity="1.000000" stroke="none" 
	d="
M372.563110,86.091354 
	C368.901611,91.236984 359.331757,92.472046 352.086914,88.487595 
	C353.043915,87.749603 354.065369,87.120697 355.127350,87.042519 
	C360.787933,86.625771 366.458679,86.346817 372.563110,86.091354 
z"/>
<path fill="#0079EC" opacity="1.000000" stroke="none" 
	d="
M281.001221,233.979599 
	C274.362671,233.988815 267.724152,233.998047 260.628479,233.997040 
	C260.116852,233.236526 260.062347,232.486237 260.083008,231.365051 
	C265.795898,231.329102 271.433624,231.664017 277.538269,231.996887 
	C278.753693,231.995697 279.502258,231.996567 280.625427,232.327698 
	C281.000427,233.098495 281.000824,233.539047 281.001221,233.979599 
z"/>
<path fill="#0079EC" opacity="1.000000" stroke="none" 
	d="
M232.368378,450.940948 
	C231.768829,444.270203 235.058365,438.965820 239.748718,434.086792 
	C237.631073,439.627411 235.161774,445.196472 232.368378,450.940948 
z"/>
<path fill="#0077F6" opacity="1.000000" stroke="none" 
	d="
M406.822937,84.489792 
	C403.778900,84.819962 400.480042,84.814346 397.093323,84.423157 
	C400.192993,84.076385 403.380554,84.115189 406.822937,84.489792 
z"/>
<path fill="#0079EC" opacity="1.000000" stroke="none" 
	d="
M263.572266,137.163116 
	C266.584778,140.367706 263.902679,142.885834 262.142639,145.781250 
	C262.302460,143.092178 262.775360,140.231430 263.572266,137.163116 
z"/>
<path fill="#0079EC" opacity="1.000000" stroke="none" 
	d="
M240.377106,433.954529 
	C241.506119,431.757446 242.949814,429.420502 244.755280,427.063232 
	C243.641937,429.300201 242.166855,431.557434 240.377106,433.954529 
z"/>
<path fill="#0079EC" opacity="1.000000" stroke="none" 
	d="
M302.642334,99.073334 
	C301.556244,99.757751 300.113037,100.367432 298.273254,100.961746 
	C299.346161,100.297119 300.815735,99.647858 302.642334,99.073334 
z"/>
<path fill="#009DFE" opacity="1.000000" stroke="none" 
	d="
M410.097656,236.435883 
	C410.329559,238.465378 410.484802,240.934036 410.393524,243.691345 
	C410.105011,241.611679 410.062988,239.243362 410.097656,236.435883 
z"/>
<path fill="#009DFE" opacity="1.000000" stroke="none" 
	d="
M410.073334,260.434998 
	C410.312622,261.826660 410.478455,263.640625 410.408997,265.724152 
	C410.115723,264.281586 410.057800,262.569458 410.073334,260.434998 
z"/>
<path fill="#0079EC" opacity="1.000000" stroke="none" 
	d="
M501.318695,363.758667 
	C501.476501,362.907013 501.948303,362.006775 502.760681,361.083099 
	C502.611725,361.943146 502.122192,362.826599 501.318695,363.758667 
z"/>
<path fill="#0079EC" opacity="1.000000" stroke="none" 
	d="
M247.347321,423.983032 
	C247.494034,423.118134 247.943909,422.119995 248.755753,421.082764 
	C248.628647,421.979004 248.139572,422.914398 247.347321,423.983032 
z"/>
<path fill="#0077F6" opacity="1.000000" stroke="none" 
	d="
M413.655762,85.090012 
	C413.428436,85.291275 412.878387,85.423462 412.177856,85.357346 
	C412.462585,85.113014 412.897797,85.066971 413.655762,85.090012 
z"/>
<path fill="#0079EC" opacity="1.000000" stroke="none" 
	d="
M292.697144,103.100662 
	C292.544067,103.396591 292.118500,103.679558 291.426758,103.975800 
	C291.581940,103.688622 292.003296,103.388161 292.697144,103.100662 
z"/>
<path fill="#0079EC" opacity="1.000000" stroke="none" 
	d="
M294.699341,102.154739 
	C294.546295,102.460579 294.134064,102.721748 293.471008,103.007584 
	C293.626831,102.724854 294.033478,102.417458 294.699341,102.154739 
z"/>
<path fill="#0079EC" opacity="1.000000" stroke="none" 
	d="
M503.299866,361.016174 
	C503.241516,360.816925 503.438416,360.528259 503.883118,360.139465 
	C503.938934,360.335114 503.747040,360.630920 503.299866,361.016174 
z"/>
<path fill="#0079EC" opacity="1.000000" stroke="none" 
	d="
M264.660767,133.863113 
	C264.903229,134.082489 264.800385,134.385956 264.396118,134.804138 
	C264.278778,134.632446 264.352356,134.308563 264.660767,133.863113 
z"/>
<path fill="#0079EC" opacity="1.000000" stroke="none" 
	d="
M290.705505,104.110107 
	C290.854279,104.402222 290.658783,104.640862 290.145874,104.880432 
	C290.100098,104.683479 290.277679,104.408569 290.705505,104.110107 
z"/>
<path fill="#0077F6" opacity="1.000000" stroke="none" 
	d="
M395.720032,84.115425 
	C395.854065,84.430435 395.644043,84.659050 395.125244,84.882828 
	C395.085541,84.670853 395.272034,84.387863 395.720032,84.115425 
z"/>
<path fill="#FEFFFE" opacity="1.000000" stroke="none" 
	d="
M454.835052,646.284424 
	C446.342712,640.055176 442.642090,631.813843 444.257568,621.956726 
	C446.028351,611.151855 454.027649,603.887085 464.627075,601.964111 
	C477.403229,599.646179 489.908752,607.627747 492.871063,619.990601 
	C495.771942,632.097107 488.517273,645.497437 476.731964,649.461792 
	C469.109222,652.025940 461.885559,650.703430 454.835052,646.284424 
z"/>
<path fill="#0077F4" opacity="1.000000" stroke="none" 
	d="
M281.468994,233.987885 
	C281.000824,233.539047 281.000427,233.098495 280.999756,232.327271 
	C286.803802,231.799805 292.608093,231.603027 298.706360,232.032043 
	C299.000214,233.097321 299.000122,233.536789 299.000000,233.976257 
	C293.312256,233.982895 287.624481,233.989532 281.468994,233.987885 
z"/>
<path fill="#0079EC" opacity="1.000000" stroke="none" 
	d="
M361.988831,233.973389 
	C353.973969,233.979401 345.959137,233.985428 337.583008,233.727859 
	C337.481567,232.976181 337.741394,232.488083 338.001221,232.000000 
	C345.021393,231.999847 352.041595,231.999680 359.682556,232.242050 
	C360.865204,232.980850 361.427032,233.477112 361.988831,233.973389 
z"/>
<path fill="#0079EC" opacity="1.000000" stroke="none" 
	d="
M299.468506,233.986023 
	C299.000122,233.536789 299.000214,233.097321 299.000763,232.328018 
	C306.021393,231.998459 313.041595,231.998734 320.530701,232.328842 
	C320.999725,233.098007 320.999878,233.537369 321.000000,233.976715 
	C313.979004,233.983078 306.958008,233.989456 299.468506,233.986023 
z"/>
<path fill="#0077F4" opacity="1.000000" stroke="none" 
	d="
M362.458313,233.982758 
	C361.427032,233.477112 360.865204,232.980850 360.151062,232.242294 
	C366.831451,231.812943 373.664093,231.625900 380.748657,232.049164 
	C381.000366,233.098846 381.000183,233.538223 381.000000,233.977570 
	C374.975922,233.982422 368.951843,233.987274 362.458313,233.982758 
z"/>
<path fill="#0077F4" opacity="1.000000" stroke="none" 
	d="
M321.466797,233.985565 
	C320.999878,233.537369 320.999725,233.098007 320.999207,232.328918 
	C326.399109,231.966492 331.799469,231.933792 337.600494,231.950531 
	C337.741394,232.488083 337.481567,232.976181 337.114929,233.719208 
	C331.983276,233.980896 326.958435,233.987671 321.466797,233.985565 
z"/>
<path fill="#0079EC" opacity="1.000000" stroke="none" 
	d="
M381.468201,233.986969 
	C381.000183,233.538223 381.000366,233.098846 381.000885,232.329742 
	C387.021637,232.000000 393.042084,232.000000 399.530640,232.000305 
	C399.998871,232.439621 399.998993,232.878647 399.998962,233.646454 
	C393.977997,233.982300 387.957184,233.989319 381.468201,233.986969 
z"/>
<path fill="#007AFD" opacity="1.000000" stroke="none" 
	d="
M266.101349,157.308624 
	C267.250671,155.280197 268.347137,153.628525 269.443634,151.976852 
	C269.869141,152.186829 270.294647,152.396790 270.720154,152.606750 
	C270.066071,155.935211 269.411987,159.263657 268.757874,162.592102 
	C268.300201,162.607193 267.842529,162.622284 267.384827,162.637375 
	C266.939392,160.986710 266.493927,159.336044 266.101349,157.308624 
z"/>
<path fill="#007AFB" opacity="1.000000" stroke="none" 
	d="
M520.112305,315.360962 
	C521.544556,323.795319 515.803772,329.116608 512.638611,335.440704 
	C513.129150,330.066742 513.711182,324.699158 514.085632,319.317169 
	C514.491394,313.486603 514.596130,307.633881 515.067444,301.809875 
	C515.204712,300.113251 516.147583,298.481812 516.721191,296.820496 
	C517.617615,296.948639 518.514038,297.076752 519.410461,297.204895 
	C519.666687,303.109619 519.922913,309.014343 520.112305,315.360962 
z"/>
<path fill="#0079EC" opacity="1.000000" stroke="none" 
	d="
M525.679749,205.175125 
	C526.029358,209.346283 526.031311,213.713501 526.031189,218.547043 
	C523.447083,216.644730 523.098267,209.817825 525.679749,205.175125 
z"/>
<path fill="#007AFB" opacity="1.000000" stroke="none" 
	d="
M511.642517,338.219666 
	C510.668640,340.391479 509.688904,342.223358 508.107239,345.180756 
	C506.938232,339.103058 507.506104,338.273254 511.642517,338.219666 
z"/>
<path fill="#0079EC" opacity="1.000000" stroke="none" 
	d="
M525.724731,185.263092 
	C526.016174,187.695419 526.018005,190.401611 526.017090,193.559265 
	C525.821289,191.186127 525.628235,188.361542 525.724731,185.263092 
z"/>
<path fill="#0079EC" opacity="1.000000" stroke="none" 
	d="
M525.717590,160.258240 
	C526.008850,162.048035 526.020142,164.095398 526.028259,166.583145 
	C525.829224,164.854294 525.633423,162.685043 525.717590,160.258240 
z"/>
<path fill="#0079EC" opacity="1.000000" stroke="none" 
	d="
M525.759155,170.190125 
	C526.027344,171.056152 526.029419,172.134415 526.028503,173.617432 
	C525.848022,172.815567 525.670532,171.608948 525.759155,170.190125 
z"/>
<path fill="#007AFB" opacity="1.000000" stroke="none" 
	d="
M338.029602,153.002045 
	C344.653503,156.764389 347.257538,163.031021 348.483063,169.451477 
	C350.585449,180.465988 348.849792,191.199387 340.725403,199.482742 
	C337.623505,202.645325 332.683746,205.310837 328.354492,205.704147 
	C317.954132,206.649017 307.419464,206.115494 296.938965,206.176300 
	C296.774506,206.177261 296.607697,206.125961 296.445709,206.140366 
	C293.620605,206.391495 290.405426,210.619568 288.128967,205.304138 
	C286.923645,202.489716 285.673431,199.694519 284.473358,196.877899 
	C284.284637,196.434875 284.255035,195.924088 284.151855,195.444626 
	C284.610809,195.538666 285.069794,195.632690 285.528778,195.726715 
	C286.352509,193.021927 287.667023,190.360596 287.911041,187.604462 
	C288.755371,178.067947 289.384399,168.504623 289.761017,158.938339 
	C289.905304,155.273743 289.468536,151.504379 288.689240,147.914597 
	C288.183960,145.587021 287.994659,143.849289 290.597504,143.342285 
	C293.145538,142.845947 296.067749,140.876129 298.143372,144.373550 
	C298.643707,145.216614 299.215790,146.017105 299.463623,146.394104 
	C305.203125,145.557892 310.544281,144.740250 315.897369,144.010086 
	C322.182983,143.152740 327.658569,144.862915 332.397675,149.153961 
	C333.981781,150.588318 335.923370,151.627899 338.029602,153.002045 
M314.015869,200.943497 
	C317.925049,200.612015 322.065765,200.997025 325.702240,199.821793 
	C339.531250,195.352570 346.449127,180.879700 341.736053,167.359634 
	C337.274902,154.562302 321.527588,148.434143 310.535065,152.297577 
	C297.803833,156.772110 290.047028,170.912247 294.343597,183.323593 
	C297.370300,192.066681 303.481873,198.606277 314.015869,200.943497 
z"/>
<path fill="#FCFFFF" opacity="1.000000" stroke="none" 
	d="
M313.604858,200.794556 
	C303.481873,198.606277 297.370300,192.066681 294.343597,183.323593 
	C290.047028,170.912247 297.803833,156.772110 310.535065,152.297577 
	C321.527588,148.434143 337.274902,154.562302 341.736053,167.359634 
	C346.449127,180.879700 339.531250,195.352570 325.702240,199.821793 
	C322.065765,200.997025 317.925049,200.612015 313.604858,200.794556 
z"/>
</svg>